<svg xmlns="http://www.w3.org/2000/svg" viewBox="0 0 48 48" width="100" height="100">
  <rect width="48" height="48" rx="8" fill="#000000"/>
  <path fill="#25F4EE" d="M32.13,23.86a8.12,8.12,0,0,1-8.12-8.12v-.65h-4.51V29.64a4.39,4.39,0,1,1-4.39-4.39,4.14,4.14,0,0,1,.88.1V20.83a8.94,8.94,0,1,0,8,8.81V21.39a12.47,12.47,0,0,0,7.89,2.81V19.69A8.15,8.15,0,0,1,32.13,23.86Z"/>
  <path fill="#FE2C55" d="M32.13,19.69V23.2a12.47,12.47,0,0,1-7.89-2.81v8.25a8.94,8.94,0,1,1-8-8.81V24.3a4.39,4.39,0,1,0,3.51,4.34V15.09h4.51v.65A8.12,8.12,0,0,0,32.13,23.86Z"/>
</svg>
